<?xml version="1.0" standalone="no"?>
<!DOCTYPE svg PUBLIC "-//W3C//DTD SVG 20010904//EN"
 "http://www.w3.org/TR/2001/REC-SVG-20010904/DTD/svg10.dtd">
<svg version="1.0" xmlns="http://www.w3.org/2000/svg"
 width="560.000000pt" height="560.000000pt" viewBox="0 0 560.000000 560.000000"
 preserveAspectRatio="xMidYMid meet">
<metadata>
Created by potrace 1.14, written by Peter Selinger 2001-2017
</metadata>
<g transform="translate(0.000000,560.000000) scale(0.100000,-0.100000)"
fill="#000000" stroke="none">
<path d="M2445 5384 c-117 -28 -184 -56 -287 -122 -144 -93 -278 -272 -278
-373 0 -36 -28 -79 -52 -79 -5 0 -35 -27 -68 -60 -198 -201 -262 -716 -130
-1061 11 -30 20 -54 20 -55 0 0 -21 -11 -47 -23 -56 -26 -109 -100 -119 -166
-3 -23 -4 -122 -2 -221 3 -195 7 -208 66 -271 17 -17 48 -39 69 -48 58 -25 68
-31 68 -41 3 -38 21 -122 42 -189 90 -286 268 -507 525 -652 l68 -38 0 -106 0
-106 -49 -39 c-27 -21 -57 -51 -67 -65 -13 -20 -29 -28 -61 -33 -24 -3 -64
-12 -91 -20 -26 -7 -92 -24 -147 -36 -418 -95 -786 -394 -972 -790 -89 -191
-123 -346 -130 -597 l-5 -193 2002 0 2002 0 -4 188 c-4 144 -10 211 -27 292
-64 293 -199 532 -424 746 -199 191 -442 317 -712 369 -49 9 -94 21 -100 25
-5 5 -33 11 -60 14 -45 6 -58 14 -123 75 l-72 69 0 105 c0 97 2 106 20 112 79
25 311 218 398 331 100 130 177 318 218 532 3 13 12 25 22 28 40 12 88 41 115
69 59 61 62 74 65 281 2 119 -1 207 -8 232 -17 64 -68 123 -125 146 -61 25
-62 25 -49 34 17 11 43 67 69 148 43 134 49 183 49 374 1 161 -2 196 -22 270
-30 113 -100 253 -162 322 l-50 56 35 52 c100 149 79 382 -43 478 -82 65 -172
67 -317 8 -197 -80 -279 -82 -550 -11 -163 43 -192 48 -310 50 -87 2 -150 -1
-190 -11z"/>
</g>
</svg>
